<svg viewBox="0 0 64 64" xmlns="http://www.w3.org/2000/svg"><g id="Fill_Outline" data-name="Fill Outline"><g id="Stroke_copy" data-name="Stroke copy"><g><path d="m10.153 15.647v.006a7.863 7.863 0 0 0 2.547 5.611l4.22 3.872a7.861 7.861 0 0 1 2.445 7.046 7.86 7.86 0 0 0 4.382 8.351l5.771 2.747a8 8 0 0 1 4.382 8.908l-1.9 8.812 8.407-12.491a7.487 7.487 0 0 0 .576-7.344 7.49 7.49 0 0 1 1.931-8.865l1.947-1.659a7.5 7.5 0 0 0 2.566-6.684l-.266-2a7.49 7.49 0 0 1 1.355-5.372l5.484-7.585-6.588.9a114.038 114.038 0 0 1 -30.824 0 5.671 5.671 0 0 0 -6.435 5.747z" fill="#d0d8da"/><path d="m49.196 34.536h8v8h-8z" fill="#d0d8da" transform="matrix(.866 .5 -.5 .866 26.395 -21.435)"/><path d="m51.807 30 7.168.793 2.025 6.92z" fill="#fcbc04"/><path d="m50 53h4a0 0 0 0 1 0 0v2a4 4 0 0 1 -4 4h-4a0 0 0 0 1 0 0v-2a4 4 0 0 1 4-4z" fill="#a1d51c" transform="matrix(-1 0 0 -1 100 112)"/><g><path d="m16.244 54.426a4.091 4.091 0 0 0 .64 2.9l1.116 1.674-3.235-2.588a12 12 0 0 1 -2.9-3.37l-3.865-6.702 3.464-2 4.279 7.41a4.1 4.1 0 0 1 .501 2.676z" fill="#f9e109"/><path d="m16.222 54.778-.456-.366a11.987 11.987 0 0 1 -2.9-3.37l-1.5-2.6a2.034 2.034 0 0 0 .378-.477 1.976 1.976 0 0 0 .256.035 1.97 1.97 0 0 0 1.29-.5l-1.826-3.16-3.464 2 3.87 6.7a11.987 11.987 0 0 0 2.9 3.37l3.23 2.59-1.116-1.675a4.083 4.083 0 0 1 -.662-2.547z" fill="#fcbc04"/><path d="m15 39a2.971 2.971 0 0 0 -1.11.218c-.024-.012-.045-.027-.07-.038a2 2 0 0 0 -1.82-1.18 1.905 1.905 0 0 0 -.263.027 1.979 1.979 0 0 0 -3.237-.337 2 2 0 0 0 -3.157 2.43 1.975 1.975 0 0 0 -1.066 2.88 1.973 1.973 0 0 0 .066 2.12 1.995 1.995 0 1 0 2.537 2.537 1.988 1.988 0 0 0 2.857-.684 1.905 1.905 0 0 0 .263.027 1.991 1.991 0 0 0 1.744-1.039 1.976 1.976 0 0 0 .256.039 2 2 0 0 0 1.846-1.232 3 3 0 1 0 1.154-5.768z" fill="#c4f236"/><path d="m16 42a2.976 2.976 0 0 1 -1.154-.232 2 2 0 0 1 -1.846 1.232 1.976 1.976 0 0 1 -.256-.039 1.991 1.991 0 0 1 -1.744 1.039 1.905 1.905 0 0 1 -.263-.027 1.988 1.988 0 0 1 -2.857.684 1.993 1.993 0 0 1 -3.537.463 1.995 1.995 0 1 0 2.537 2.537 1.988 1.988 0 0 0 2.857-.684 1.905 1.905 0 0 0 .263.027 1.991 1.991 0 0 0 1.744-1.039 1.976 1.976 0 0 0 .256.039 2 2 0 0 0 1.846-1.232 2.978 2.978 0 0 0 4.062-3.468 2.972 2.972 0 0 1 -1.908.7z" fill="#a1d51c"/></g><path d="m40.922 41h-1.522a24.219 24.219 0 0 1 -10.4-2.349 8.049 8.049 0 0 1 -4.634-8.439 7.86 7.86 0 0 0 -2.44-7.076l-4.232-3.883a7.818 7.818 0 0 1 -2.532-5.6 5.6 5.6 0 0 1 1.337-3.762 5.667 5.667 0 0 0 -6.338 5.756v.006a7.859 7.859 0 0 0 2.544 5.61l4.22 3.873a7.861 7.861 0 0 1 2.445 7.046 7.86 7.86 0 0 0 4.382 8.351l5.771 2.747a8 8 0 0 1 4.377 8.908l-1.9 8.812 8.407-12.491a7.487 7.487 0 0 0 .576-7.344c-.025-.054-.037-.111-.061-.165z" fill="#93999a"/><path d="m48 57h-2v2h4a4 4 0 0 0 4-4v-2h-.349a6 6 0 0 1 -5.651 4z" fill="#7ab92d"/><path d="m51.732 33.072-.957 1.658 4.789 2.77a5 5 0 0 1 -6.234 1l-.549-.317-1.049 1.817 6.928 4 4-6.928z" fill="#93999a"/><path d="m57.975 31.793 1.312 4.483 1.713 1.437-2.025-6.92-7.168-.793 1.525 1.279z" fill="#f9e109"/></g></g><g id="Stroke_Cut_copy_2" data-name="Stroke Cut copy 2"><g fill="#323232"><path d="m42.748 47.994c2.486-.836 4.252-2.182 4.252-3.994 0-1.9-2.048-3.519-5.51-4.375a6.447 6.447 0 0 1 -.186-1.951c2.553-.732 4.696-1.874 4.696-3.674a2.618 2.618 0 0 0 -1.145-2.038l.655-.558a8.483 8.483 0 0 0 1.777-2.125c3.435-.979 5.713-2.395 5.713-4.279 0-1.614-1.659-2.955-4.892-4 0-.184.012-.367.027-.55 4.513-.926 7.865-2.344 7.865-4.45 0-1.28-1.15-2.345-3.483-3.242l2.294-3.172a1 1 0 0 0 -.946-1.577l-6.588.9a113.12 113.12 0 0 1 -17.259 1 1.022 1.022 0 0 0 -1.018.984 1 1 0 0 0 .982 1.017 115.816 115.816 0 0 0 17.565-1.02l4.274-.583-3.372 4.664a1 1 0 0 0 1.621 1.172l1.232-1.7c2.523.864 2.698 1.55 2.698 1.557 0 1.2-8.166 4-24 4a88.079 88.079 0 0 1 -18.188-1.609 6.869 6.869 0 0 1 -.659-2.767c0-.107 0-.213.01-.319 1.6.359 3.429.672 5.472.928a1.093 1.093 0 0 0 .126.008 1 1 0 0 0 .123-1.992q-2.921-.368-5.2-.876a4.64 4.64 0 0 1 4.774-2.483c3.013.41 6.208.706 9.494.88a1 1 0 0 0 .106-2c-3.232-.169-6.371-.46-9.33-.864a6.611 6.611 0 0 0 -6.508 3.014c-4.172 1.046-6.22 2.38-6.22 4.08 0 1.887 2.693 3.221 6.5 4.144a8.794 8.794 0 0 0 1.521 1.856l.56.513a3.1 3.1 0 0 0 -1.581 2.487c0 2.169 3.015 3.715 7.344 4.7a6.676 6.676 0 0 1 .1.719c-2.939.887-4.444 2.089-4.444 3.581 0 3.436 8.294 5 16 5a1 1 0 0 0 0-2 44.132 44.132 0 0 1 -9.156-.852 6.794 6.794 0 0 1 -.493-3.807 8.927 8.927 0 0 0 .075-2.235 70.649 70.649 0 0 0 11.574.894 69.53 69.53 0 0 0 12.048-.977l-1.531 1.3-.007.006-.245.209a8.465 8.465 0 0 0 -2.749 4.528 38.487 38.487 0 0 1 -6 .817 1 1 0 0 0 .065 2h.066a45.51 45.51 0 0 0 5.644-.725 8.431 8.431 0 0 0 .786 3.428 6.537 6.537 0 0 1 .193 5.014 21.883 21.883 0 0 1 -4.27.4c-.57 0-1.12-.02-1.646-.055a8.981 8.981 0 0 0 -4.408-4.569l-2.376-1.131a1.008 1.008 0 0 0 -1.038.109 3.33 3.33 0 0 0 -1.532 2.646c0 1.952 2.049 3.364 4.841 4.18a2.13 2.13 0 0 0 -1.341 1.82c0 1.6 2.174 2.349 4.266 2.7l-1.743 8.093a1 1 0 0 0 .586 1.131.981.981 0 0 0 .391.076 1 1 0 0 0 .83-.441l5.83-8.659c2.391-.215 5.84-.874 5.84-2.9 0-.834-.6-1.5-1.752-2.006zm-26.748-13.994c0-.157.436-.783 2.333-1.455a8.762 8.762 0 0 0 .207 2.988c-1.679-.56-2.54-1.154-2.54-1.533zm35-9c0 .5-.931 1.187-2.729 1.846a8.5 8.5 0 0 0 .147-3.018l-.085-.641c2.143.813 2.667 1.558 2.667 1.813zm-45-9c0-.009.228-.807 3.274-1.75a6.771 6.771 0 0 0 -.12 1.427 8.785 8.785 0 0 0 .325 2.131c-2.308-.674-3.479-1.356-3.479-1.808zm7 9c0-.182.255-.588 1.105-1.087l2.137 1.959a6.879 6.879 0 0 1 1.23 1.519c-2.93-.805-4.472-1.744-4.472-2.391zm6.954 2.967a8.866 8.866 0 0 0 -2.36-3.569l-3.941-3.614a107.212 107.212 0 0 0 16.347 1.216 107.871 107.871 0 0 0 16.1-1.177 8.376 8.376 0 0 0 .068 1.265l.266 2a6.477 6.477 0 0 1 -.5 3.459 58.446 58.446 0 0 1 -13.934 1.453 63.438 63.438 0 0 1 -12.046-1.033zm23.36 5.342c.542.348.686.611.686.691 0 .3-.677.853-2.157 1.4a6.432 6.432 0 0 1 1.471-2.091zm1.686 10.691c0 .617-.893 1.376-2.483 1.976a8.57 8.57 0 0 0 -.17-4.009c1.753.627 2.653 1.433 2.653 2.033zm-6.005 4.817-1.453 2.159c-.333.015-.678.024-1.042.024-.514 0-.987-.02-1.44-.048a9.006 9.006 0 0 0 -.105-1.974 24.952 24.952 0 0 0 4.04-.161zm-11.995-4.817a1.076 1.076 0 0 1 .315-.661l1.771.844a6.991 6.991 0 0 1 2.838 2.458c-3.092-.583-4.924-1.756-4.924-2.641zm5.967 5.292a6.91 6.91 0 0 1 .1 1.434 7.648 7.648 0 0 1 -2.39-.726 7.37 7.37 0 0 1 2.29-.708zm1.794 3.638c.6.044 1.1.061 1.421.066l-2.11 3.136zm5.385-2.241.806-1.2a5.367 5.367 0 0 1 1.369.514 7.178 7.178 0 0 1 -2.175.686z"/><path d="m61.96 37.433-2.025-6.921a1 1 0 0 0 -.85-.713l-7.168-.793a1 1 0 0 0 -.752 1.76l6.752 5.666a.914.914 0 0 0 -.123.14l-3.5 6.062-5.2-3 3.047-5.278a1 1 0 1 0 -1.732-1l-3.543 6.144a1 1 0 0 0 .366 1.366l6.928 4a1 1 0 0 0 1.366-.366l3.919-6.786.912.765a1 1 0 0 0 1.6-1.046zm-3.76-5.719.91 3.111-4.13-3.468z"/><path d="m59.165 43.014a.994.994 0 0 0 -1.151.822 4.43 4.43 0 0 1 -5.588 3.531l-1.151-.329a1 1 0 0 0 -.55 1.924l1.151.329a6.431 6.431 0 0 0 8.11-5.127 1 1 0 0 0 -.821-1.15z"/><path d="m54 52h-4a5.006 5.006 0 0 0 -5 5v2a1 1 0 0 0 1 1h4a5.006 5.006 0 0 0 5-5v-2a1 1 0 0 0 -1-1zm-1 3a3 3 0 0 1 -3 3h-1l1.6-1.2a1 1 0 0 0 -1.2-1.6l-2.4 1.8a3 3 0 0 1 3-3h3z"/><path d="m21.684 53.051a7.634 7.634 0 0 1 -4.453.079 5.12 5.12 0 0 0 -.622-1.88l-.673-1.165 1.864-2.485a1 1 0 0 0 .057-1.115l-.682-1.137a3.994 3.994 0 0 0 -2.175-7.348 3.865 3.865 0 0 0 -.712.065 3 3 0 0 0 -2.055-1.056 3.065 3.065 0 0 0 -3.733-.6 3 3 0 0 0 -4.417 3.291 2.992 2.992 0 0 0 -1.083 2.3 1 1 0 0 0 2 0 1 1 0 0 1 .674-.937 1 1 0 0 0 .5-1.5 1 1 0 0 1 1.577-1.211 1.03 1.03 0 0 0 1.5 0 .981.981 0 0 1 1.613.168 1.008 1.008 0 0 0 1.006.5l.13-.02a1 1 0 0 1 .909.591.817.817 0 0 0 .442.471c.022.013.076.042.1.054a1 1 0 0 0 .812.03 2 2 0 1 1 .737 3.854 1.992 1.992 0 0 1 -.769-.154 1 1 0 0 0 -1.308.538.985.985 0 0 1 -.881.615c-.023-.005-.139-.026-.162-.029a1.006 1.006 0 0 0 -1.01.508 1 1 0 0 1 -.863.522l-.134-.018a1.012 1.012 0 0 0 -1.006.5 1.014 1.014 0 0 1 -1.424.345 1 1 0 0 0 -1.5.5 1 1 0 0 1 -1.943-.327.989.989 0 0 1 .44-.82 1 1 0 0 0 -1.117-1.659 2.994 2.994 0 1 0 3.975 4.4 2.92 2.92 0 0 0 1.062.047l2.64 4.574a12.969 12.969 0 0 0 2 2.607v.023a5.789 5.789 0 0 1 -1.707 4.121 1 1 0 1 0 1.414 1.414 7.759 7.759 0 0 0 2.132-3.955l2.536 2.029a1 1 0 0 0 1.457-1.336l-1.116-1.674a3.1 3.1 0 0 1 -.516-1.571 9.5 9.5 0 0 0 5.113-.253 1 1 0 1 0 -.632-1.9zm-7.392-7.114a3.975 3.975 0 0 0 .708.063c.076 0 .146-.018.221-.022l.575.96-.947 1.262-1.049-1.809a3.045 3.045 0 0 0 .492-.454zm.921 9.549a10.937 10.937 0 0 1 -2.477-2.944l-2.583-4.473c.026-.027.055-.05.08-.078a2.973 2.973 0 0 0 1.744-.762l2.9 5.021a3.1 3.1 0 0 1 .379 2.022 5.154 5.154 0 0 0 -.043 1.214z"/><path d="m9.8 56.02a2.4 2.4 0 0 1 -2.82-2.82 1 1 0 1 0 -1.96-.4 4.4 4.4 0 0 0 5.18 5.18 1 1 0 1 0 -.4-1.96z"/><path d="m22.553 48.105-2 1a1 1 0 0 0 .894 1.79l2-1a1 1 0 1 0 -.894-1.79z"/><path d="m42 56h-2a1 1 0 0 0 0 2h2a1 1 0 0 0 0-2z"/><path d="m28 55h-2a1 1 0 0 0 0 2h2a1 1 0 0 0 0-2z"/><path d="m3.684 29.948a8.263 8.263 0 0 1 4.238 3.238l.246.369a1 1 0 0 0 1.761-.926l-1.17-2.924a3.982 3.982 0 0 1 .141-3.258 1 1 0 1 0 -1.79-.894 5.986 5.986 0 0 0 -.565 3.554 10.213 10.213 0 0 0 -2.224-1.055 1 1 0 1 0 -.632 1.9z"/><path d="m35.614 43.575a2.96 2.96 0 0 0 2.094-.868 1 1 0 0 0 -1.416-1.414.961.961 0 0 1 -1.11.18 1 1 0 1 0 -.894 1.789 2.961 2.961 0 0 0 1.326.313z"/><path d="m37.986 33.836a1 1 0 0 0 -1.15-.822 28.086 28.086 0 0 1 -11.495-.459 1 1 0 1 0 -.485 1.939 30.07 30.07 0 0 0 7.322.907 30.288 30.288 0 0 0 4.986-.415 1 1 0 0 0 .822-1.15z"/><path d="m43.964 23.735a1 1 0 0 0 -1.228-.7l-.213.059a48.145 48.145 0 0 1 -16.823 1.525.983.983 0 0 0 -1.082.911 1 1 0 0 0 .911 1.081q2.159.185 4.312.185a50.112 50.112 0 0 0 13.21-1.773l.214-.058a1 1 0 0 0 .699-1.23z"/><path d="m23.611 15.84a1 1 0 0 0 .955 1.043c1.772.078 3.6.117 5.434.117a107.155 107.155 0 0 0 14.346-.9 1 1 0 1 0 -.274-1.981 105.236 105.236 0 0 1 -14.072.881c-1.8 0-3.6-.039-5.346-.115a1 1 0 0 0 -1.043.955z"/></g></g></g></svg>